<?xml version="1.0" encoding="utf-8"?>
<!-- Generator: Adobe Illustrator 18.1.1, SVG Export Plug-In . SVG Version: 6.00 Build 0)  -->
<svg version="1.1" xmlns="http://www.w3.org/2000/svg" xmlns:xlink="http://www.w3.org/1999/xlink" x="0px" y="0px"
	 viewBox="0 0 1024 768" enable-background="new 0 0 1024 768" xml:space="preserve">
<g id="Calque_2" display="none">
	<rect display="inline" fill="#26536E" width="1024" height="768"/>
</g>
<g id="Calque_1">
	<g>
		<polygon fill-rule="evenodd" clip-rule="evenodd" fill="#FFFFFF" points="881.9,650.6 881.9,639.4 881.9,636.5 881.9,636.2 
			847.5,636.2 847.5,626.6 871.2,626.6 871.2,584.8 820.4,584.8 820.4,626.6 844.3,626.6 844.3,636.2 811.5,636.2 811.5,636.5 
			811.5,639.4 811.5,650.6 787.7,650.6 787.7,692.4 838.4,692.4 838.4,650.6 814.7,650.6 814.7,639.4 878.7,639.4 878.7,650.6 
			854.9,650.6 854.9,692.4 905.6,692.4 905.6,650.6 		"/>
		<path fill="#00953A" d="M177.5,480.6c-47.7,0-86.5-38.8-86.5-86.5s38.8-86.5,86.5-86.5s86.5,38.8,86.5,86.5
			S225.2,480.6,177.5,480.6z M177.5,313.6c-44.4,0-80.5,36.1-80.5,80.5s36.1,80.5,80.5,80.5s80.5-36.1,80.5-80.5
			S221.9,313.6,177.5,313.6z"/>
		<path fill="#00953A" d="M177.4,203c-47.7,0-86.5-38.8-86.5-86.5S129.7,30,177.4,30s86.5,38.8,86.5,86.5S225.1,203,177.4,203z
			 M177.4,36c-44.4,0-80.5,36.1-80.5,80.5S133,197,177.4,197s80.5-36.1,80.5-80.5S221.7,36,177.4,36z"/>
		<path fill="#FF1F19" d="M847.7,476.4c-47.7,0-86.5-38.8-86.5-86.5s38.8-86.5,86.5-86.5c47.7,0,86.5,38.8,86.5,86.5
			S895.4,476.4,847.7,476.4z M847.7,309.4c-44.4,0-80.5,36.1-80.5,80.5c0,44.4,36.1,80.5,80.5,80.5s80.5-36.1,80.5-80.5
			C928.2,345.5,892.1,309.4,847.7,309.4z"/>
		<g>
			<path fill-rule="evenodd" clip-rule="evenodd" fill="#FFFFFF" d="M228.7,144.7c-1.4-10.8-2.7-22-3.7-26.7c0-0.2-0.1-0.3-0.2-0.4
				c0,0,0,0,0,0c0,0-0.1-0.1-0.1-0.1c0,0-0.1-0.1-0.1-0.1c-2.1-3.6-11.2-5.1-14.6-6.7v-1.5c1.9-1.9,3.5-4.6,4.6-7.8
				c0.1,0.1,0.2,0.2,0.4,0.2c0.8,0.1,1.7-1.4,2-3.3c0.3-2-0.1-3.7-0.8-3.8c-0.1,0-0.1,0-0.2,0c0.4-6.5-2.1-12.5-9.5-13.2
				c-0.5,0-1-0.1-1.5-0.1c-0.5,0-1,0-1.5,0.1c-7.4,0.7-9.9,6.8-9.5,13.3c-0.1,0-0.2,0-0.3,0c-0.8,0.1-1.2,1.8-0.8,3.8
				c0.3,2,1.2,3.5,2,3.3c0.2,0,0.3-0.1,0.4-0.3c1.1,3.1,2.7,5.9,4.6,7.7v1.6c-3.1,1.6-9.8,2.7-12.9,5c-0.6,0.2-1.1,0.7-1.4,1.5
				c-0.1,0.2-0.2,0.4-0.2,0.6c0,0,0,0.1,0,0.1c0,0,0,0.1,0,0.1c-1.1,5.1-2.4,16.2-3.7,26.6c-0.3,2.7,2.4,3.8,3.3,4
				c1.6,0.4,3.1,0.7,4.6,1c0,0,0,0,0,0c1.3,0.3,2.7,0.5,4.3,0.6c0.2,0,0.4,0.1,0.6,0.1l0,0c6.3,0.6,14.6,0.6,20.8,0l0,0.1
				c3.7-0.5,6.5-0.8,9.9-1.8C226,148.2,229,147,228.7,144.7z"/>
			<g>
				<path fill-rule="evenodd" clip-rule="evenodd" fill="#26536E" d="M216.7,117.1l-4.2-5.6l-5.1,20.8l-1-12.3h0l1.3-1.8l-2.6-3.9
					l0,0l-5.1-4.3l-2.4,1.6l4.2,6.7l3.3-3.9l-2.3,3.9l1.1,1.8c0,0,0,0,0,0l-1,12.6l-5.2-21.1l-4.5,5.4l4.1,4.7l-1.6,2.2l9.5,18.1
					l9.5-18.1l-1.6-2.2L216.7,117.1z"/>
				<polygon fill-rule="evenodd" clip-rule="evenodd" fill="#26536E" points="212.5,111.5 210.1,109.9 205,114.3 208.4,118.2 				
					"/>
			</g>
			<path fill-rule="evenodd" clip-rule="evenodd" fill="#FFFFFF" d="M173.4,144.2c-1.4-10.8-2.7-22-3.7-26.7c0-0.2-0.1-0.3-0.2-0.4
				c0,0,0,0,0,0c0,0-0.1-0.1-0.1-0.1c0,0-0.1-0.1-0.1-0.1c-2.1-3.6-11.2-5.1-14.6-6.7v-1.5c1.9-1.9,3.5-4.6,4.6-7.8
				c0.1,0.1,0.2,0.2,0.4,0.2c0.8,0.1,1.7-1.4,2-3.3c0.3-2-0.1-3.7-0.8-3.8c-0.1,0-0.1,0-0.2,0c0.4-6.5-2.1-12.5-9.5-13.2
				c-0.5,0-1-0.1-1.5-0.1c-0.5,0-1,0-1.5,0.1c-7.4,0.7-9.9,6.8-9.5,13.3c-0.1,0-0.2,0-0.3,0c-0.8,0.1-1.2,1.8-0.8,3.8
				c0.3,2,1.2,3.5,2,3.3c0.2,0,0.3-0.1,0.4-0.3c1.1,3.1,2.7,5.9,4.6,7.7v1.6c-3.1,1.6-9.8,2.7-12.9,5c-0.6,0.2-1.1,0.7-1.4,1.5
				c-0.1,0.2-0.2,0.4-0.2,0.6c0,0,0,0.1,0,0.1c0,0,0,0.1,0,0.1c-1.1,5.1-2.4,16.2-3.7,26.6c-0.3,2.7,2.4,3.8,3.3,4
				c1.6,0.4,3.1,0.7,4.6,1c0,0,0,0,0,0c1.2,0.2,2.6,0.4,4.2,0.6c0.2,0,0.5,0.1,0.7,0.1l0,0c6.3,0.6,14.6,0.6,20.8,0l0,0.1
				c3.7-0.5,6.5-0.8,9.9-1.8C170.7,147.8,173.7,146.6,173.4,144.2z"/>
			<path fill-rule="evenodd" clip-rule="evenodd" fill="#26536E" d="M149.7,113.8l-2.4,3.9l1.1,1.8c0.9,0,1.7,0,2.6,0l1.3-1.8
				L149.7,113.8z"/>
			<g>
				<polygon fill-rule="evenodd" clip-rule="evenodd" fill="#26536E" points="149.8,113.8 144.7,109.5 142.3,111 146.4,117.7 				
					"/>
				<polygon fill-rule="evenodd" clip-rule="evenodd" fill="#26536E" points="161.4,116.7 157.2,111 152.1,131.8 151.1,119.5 
					148.5,119.5 147.5,132.1 142.3,111 137.8,116.4 141.8,121.1 140.3,123.3 149.8,141.4 159.2,123.3 157.7,121.1 				"/>
				<polygon fill-rule="evenodd" clip-rule="evenodd" fill="#26536E" points="157.2,111 154.9,109.5 149.8,113.8 153.2,117.7 				
					"/>
			</g>
			<path fill-rule="evenodd" clip-rule="evenodd" fill="#FFFFFF" d="M205.5,159.3c-1.6-13-3.2-26.4-4.5-32c0-0.2-0.1-0.4-0.2-0.5
				c0,0,0,0,0-0.1c-2.4-5.2-16.4-6.9-19-9c-1.7,1.5-3,1.9-4.9,1.9c-1.9,0-3.2-0.3-4.9-1.8c-2.9,2.4-12.4,3.6-16.6,6.7
				c-0.7,0.3-1.3,0.9-1.7,1.9c-0.1,0.2-0.2,0.4-0.3,0.6c0,0,0,0.1,0,0.1c0,0.1,0,0.1,0,0.2c-1.4,6.1-2.8,19.5-4.4,31.9
				c-0.4,3.2,2.9,4.6,4,4.8c1.9,0.5,3.7,0.9,5.6,1.2c0,0,0,0,0,0c1.5,0.3,3.2,0.5,5,0.7c0.3,0,0.5,0.1,0.8,0.1l0,0
				c7.6,0.7,17.5,0.7,25,0l0,0.1c4.4-0.6,7.9-1,11.9-2.2C202.3,163.6,205.9,162.1,205.5,159.3z"/>
			<path fill="#26536E" d="M176.7,167.6c-4,0-7.9-0.2-11.3-0.5l0,0l-1.9-0.2c-2-0.2-3.7-0.5-5.1-0.7l-0.8-0.2
				c-1.7-0.3-3.2-0.6-4.8-1.1c-1.8-0.5-5.2-2.3-4.7-5.9c0.3-2.5,0.6-5,0.9-7.5c1.2-10,2.4-19.4,3.5-24.3l0,0l0.1-0.4
				c0.1-0.2,0.2-0.5,0.3-0.8c0.4-1.1,1.2-1.9,2.1-2.4c2.4-1.7,6-2.8,9.5-3.9c2.9-0.9,5.7-1.7,7-2.7l0.7-0.5l0.6,0.6
				c1.6,1.4,2.5,1.6,4.2,1.6c1.6,0,2.7-0.2,4.3-1.6l0.6-0.6l0.7,0.5c0.8,0.6,3.2,1.4,5.8,2.1c5.2,1.6,11.8,3.5,13.5,7.2l0.2,0.4
				l0,0.1c0,0.1,0.1,0.2,0.1,0.3c1.1,4.8,2.4,15.2,3.7,26.1l0.8,6c0.4,3.2-2.9,5-4.8,5.6c-3.7,1.1-6.9,1.5-10.6,2l-2.4,0.3l0-0.1
				C185,167.4,180.9,167.6,176.7,167.6z M164.2,165l0.4,0c3.6,0.3,7.7,0.5,12.1,0.5c4.5,0,8.9-0.2,12.7-0.6l1-0.1l0,0l0.4,0
				c3.8-0.5,6.8-0.9,10.3-2c0,0,3.7-1.2,3.4-3.4l-0.8-6c-1.4-10.9-2.6-21.2-3.7-25.9c0-0.1-0.1-0.2-0.1-0.3l0-0.1l0,0
				c-0.1-0.1-0.1-0.2-0.2-0.3l0.2-0.5l-0.2,0.4c-1.7-2.7-7.6-4.5-12-5.8c-2.5-0.7-4.5-1.3-5.8-2c-1.5,1.2-2.9,1.7-5,1.7
				c-1.8,0-3.2-0.3-4.9-1.6c-1.6,1-4.1,1.8-7,2.6c-3.2,1-6.9,2.1-9,3.6l-0.2,0.1c-0.3,0.1-0.8,0.4-1.1,1.3l0,0.1
				c0,0.1-0.1,0.1-0.1,0.2l-0.1,0.4c-1.1,4.9-2.2,14.3-3.5,24.4c-0.3,2.5-0.6,5-0.9,7.5c-0.3,2.8,3.2,3.7,3.3,3.8
				c1.8,0.5,3.5,0.8,5.5,1.2l1.2,0.2l0,0c1.1,0.2,2.4,0.4,3.8,0.5L164.2,165z"/>
			<path fill-rule="evenodd" clip-rule="evenodd" fill="#FFFFFF" d="M190.5,98.9c0,0-0.1,0-0.1,0c0-0.7,0-1.4-0.1-2
				c-0.2-7.5-3.8-14-13.3-14c-10.3,0-13.7,7.7-13.2,16c-0.1,0-0.2,0-0.3,0c-1,0.2-1.4,2.2-1,4.6c0.4,2.4,1.5,4.2,2.4,4
				c0.2,0,0.4-0.2,0.5-0.3c1.4,4,3.5,7.6,6,9.8v9.3h1.1v0.1h9.4v-0.1h1.1v-9.8c2.3-2.2,4.2-5.6,5.5-9.3c0.1,0.1,0.3,0.2,0.5,0.3
				c1,0.2,2-1.6,2.4-4C191.9,101.1,191.5,99.1,190.5,98.9z"/>
			<g>
				<path fill-rule="evenodd" clip-rule="evenodd" fill="#26536E" d="M191.1,126.2l-5-6.8l-6.2,25l-1.3-14.9h0l1.5-2.1l-3.1-4.7l0,0
					l-6.1-5.2l-2.9,1.9l5,8l3.8-4.5l-2.8,4.5l1.4,2.1c0,0,0,0,0,0l-1.2,15.1l-6.2-25.3l-5.4,6.4l4.9,5.6l-1.9,2.7L177,156l0.1-0.1
					l0,0.1l11.4-21.7l-1.9-2.7L191.1,126.2z"/>
				<polygon fill-rule="evenodd" clip-rule="evenodd" fill="#26536E" points="186,119.5 183.2,117.6 177,122.8 181.1,127.5 				"/>
			</g>
		</g>
		<g>
			<polygon fill="#FFFFFF" points="873.2,370.6 873.2,423.4 870.9,423.4 870.9,390.5 855.8,390.5 855.8,423.4 853.5,423.4 
				853.5,401.7 838.5,401.7 838.5,423.4 836.1,423.4 836.1,391.5 821.1,391.5 821.1,423.4 818.8,423.4 818.8,400.6 803.7,400.6 
				803.7,423.4 803.7,426 888.2,426 888.2,423.4 888.2,370.6 			"/>
			<ellipse fill="#FFFFFF" cx="794.8" cy="398.2" rx="4.1" ry="4.7"/>
			<polygon fill="#FFFFFF" points="884.1,346.3 887.8,352.1 891.5,357.9 894.8,346 			"/>
			<path fill="#FFFFFF" d="M843.8,389.9l0.8,1.1l1-0.8l41.3-35.9l-0.7-1.1l-0.8-1.3l-40.4,35l-14.5-19.9l-0.8-1.1l-1,0.8l-30.4,26.4
				c0.7,0.6,1.2,1.5,1.5,2.4l29.4-25.6L843.8,389.9z"/>
		</g>
		<path fill="#00953A" d="M513,207.1c-47.7,0-86.5-38.8-86.5-86.5c0-47.7,38.8-86.5,86.5-86.5c47.7,0,86.5,38.8,86.5,86.5
			C599.5,168.3,560.7,207.1,513,207.1z M513,40.1c-44.4,0-80.5,36.1-80.5,80.5c0,44.4,36.1,80.5,80.5,80.5
			c44.4,0,80.5-36.1,80.5-80.5C593.5,76.2,557.4,40.1,513,40.1z"/>
		<path fill="#FF1F19" d="M512.3,737.2c-47.7,0-86.5-38.8-86.5-86.5c0-47.7,38.8-86.5,86.5-86.5c47.7,0,86.5,38.8,86.5,86.5
			C598.8,698.4,560,737.2,512.3,737.2z M512.3,570.2c-44.4,0-80.5,36.1-80.5,80.5s36.1,80.5,80.5,80.5c44.4,0,80.5-36.1,80.5-80.5
			S556.7,570.2,512.3,570.2z"/>
		<path fill="#FFFFFF" d="M513,515.4c-71.3,0-129.4-58-129.4-129.4s58-129.4,129.4-129.4c71.3,0,129.4,58,129.4,129.4
			S584.3,515.4,513,515.4z M513,262.6c-68,0-123.4,55.3-123.4,123.4c0,68,55.3,123.4,123.4,123.4c68,0,123.4-55.3,123.4-123.4
			C636.4,318,581,262.6,513,262.6z"/>
		<g>
			<path fill="#FFFFFF" d="M557.6,83.2h-89.2c-1.8,0-3.2,1.4-3.2,3.2v59c0,1.2,0.7,2.2,1.6,2.8c0.5,0.3,1,0.4,1.6,0.4h89.2
				c0.6,0,1.1-0.2,1.6-0.4c1-0.5,1.6-1.6,1.6-2.8v-59C560.8,84.6,559.3,83.2,557.6,83.2z M468,86.4c0-0.2,0.2-0.5,0.5-0.5h89.2
				c0.3,0,0.5,0.2,0.5,0.5v59c0,0.2-0.2,0.5-0.5,0.5h-89.2c-0.3,0-0.5-0.2-0.5-0.5V86.4z"/>
			<rect x="494.4" y="148.2" fill="#FFFFFF" width="37.3" height="5.1"/>
			<rect x="482.6" y="155.4" fill="#FFFFFF" width="60.7" height="2.5"/>
			<rect x="476.7" y="95" fill="#FFFFFF" width="71.9" height="42.4"/>
			<rect x="484.9" y="102.9" fill="#26536E" width="12" height="2.7"/>
			<rect x="484.9" y="106.8" fill="#26536E" width="12" height="2.7"/>
			<rect x="484.9" y="110.6" fill="#26536E" width="12" height="2.7"/>
			<rect x="498.5" y="102.9" fill="#26536E" width="42.8" height="2.7"/>
			<rect x="498.5" y="106.8" fill="#26536E" width="42.8" height="23.4"/>
			<rect x="526.7" y="123.8" fill="#FFFFFF" width="12" height="2.7"/>
			<rect x="526.7" y="110.1" fill="#FFFFFF" width="12" height="2.7"/>
		</g>
		<g>
			<polygon fill="#FFFFFF" points="204.3,359.1 151.8,359.1 178.5,335.6 			"/>
			<polygon fill="#FFFFFF" points="147.3,396.7 177.4,419.8 147.3,396.7 			"/>
			<rect x="151.9" y="369.1" fill="#FFFFFF" width="25.7" height="2"/>
			<rect x="151.9" y="373.4" fill="#FFFFFF" width="50.4" height="2"/>
			<rect x="151.9" y="377.4" fill="#FFFFFF" width="50.4" height="2"/>
			<rect x="151.9" y="381.4" fill="#FFFFFF" width="50.4" height="2"/>
			<rect x="151.9" y="385.4" fill="#FFFFFF" width="50.4" height="2"/>
			<rect x="151.9" y="389.4" fill="#FFFFFF" width="50.4" height="2"/>
			<polygon fill="#FFFFFF" points="142.7,367.1 142.7,393.2 126.9,381 			"/>
			<polygon fill="#FFFFFF" points="228.2,380.9 212.7,392.8 212.7,366.8 			"/>
			<polygon fill="#FFFFFF" points="227.8,386.6 227.8,438.5 126.9,438.5 126.9,386.6 177.4,425.8 			"/>
			<path fill="#FFFFFF" d="M147.3,363.7l0,33l30.1,23.2l30.8-23.7v-32.5H147.3z M151.9,369.1h25.7v2h-25.7V369.1z M202.3,391.4
				h-50.4v-2h50.4V391.4z M202.3,387.4h-50.4v-2h50.4V387.4z M202.3,383.4h-50.4v-2h50.4V383.4z M202.3,379.4h-50.4v-2h50.4V379.4z
				 M202.3,375.4h-50.4v-2h50.4V375.4z"/>
			<rect x="151.9" y="369.1" fill="#FFFFFF" width="25.7" height="2"/>
			<rect x="151.9" y="373.4" fill="#FFFFFF" width="50.4" height="2"/>
			<rect x="151.9" y="377.4" fill="#FFFFFF" width="50.4" height="2"/>
			<rect x="151.9" y="381.4" fill="#FFFFFF" width="50.4" height="2"/>
			<rect x="151.9" y="385.4" fill="#FFFFFF" width="50.4" height="2"/>
			<rect x="151.9" y="389.4" fill="#FFFFFF" width="50.4" height="2"/>
			<rect x="151.9" y="369.1" fill="#26536E" width="25.7" height="2"/>
			<rect x="151.9" y="373.4" fill="#26536E" width="50.4" height="2"/>
			<rect x="151.9" y="377.4" fill="#26536E" width="50.4" height="2"/>
			<rect x="151.9" y="381.4" fill="#26536E" width="50.4" height="2"/>
			<rect x="151.9" y="385.4" fill="#26536E" width="50.4" height="2"/>
			<rect x="151.9" y="389.4" fill="#26536E" width="50.4" height="2"/>
		</g>
		<path fill="#FF1F19" d="M845.8,735.7c-47.7,0-86.5-38.8-86.5-86.5c0-47.7,38.8-86.5,86.5-86.5c47.7,0,86.5,38.8,86.5,86.5
			C932.3,696.9,893.5,735.7,845.8,735.7z M845.8,568.7c-44.4,0-80.5,36.1-80.5,80.5s36.1,80.5,80.5,80.5c44.4,0,80.5-36.1,80.5-80.5
			S890.2,568.7,845.8,568.7z"/>
		<g>
			<path fill-rule="evenodd" clip-rule="evenodd" fill="#26536E" d="M890.3,683.8c-0.6-4.6-1.1-9.4-1.6-11.4c0-0.1,0-0.1-0.1-0.2
				c0,0,0,0,0,0c0,0,0-0.1,0-0.1c0,0,0-0.1-0.1-0.1c-0.8-1.2-3.4-1.8-5.1-2.4l0-0.1l0,0l-2.2,8.8l0,0l-0.4-5.2h0l0.5-0.8l-1.1-1.7
				l-1,1.7l0.5,0.8c0,0,0,0,0,0l-0.4,4.6l-0.1,0.8l-2.2-8.9l0-0.1l-0.1,0.1c-1.4,0.5-3.4,0.9-4.4,1.7c0,0,0,0,0,0c0,0,0,0,0,0
				c-0.3,0.1-0.5,0.3-0.6,0.7c0,0,0,0,0,0c0,0.1-0.1,0.1-0.1,0.2c0,0,0,0,0,0c0,0,0,0,0,0c0,0,0,0,0,0.1c-0.5,2.2-1,6.9-1.6,11.3
				c-0.1,1.1,1,1.6,1.4,1.7c0.7,0.2,1.3,0.3,2,0.4c0,0,0,0,0,0c0.6,0.1,1.2,0.2,1.9,0.3c0,0,0.1,0,0.1,0v0c2.7,0.3,6.2,0.2,8.9,0
				l0,0c1.6-0.2,2.8-0.3,4.2-0.8C889.1,685.3,890.4,684.8,890.3,683.8z"/>
			<path fill-rule="evenodd" clip-rule="evenodd" fill="#26536E" d="M875.9,665.4c0.1,0,0.1-0.1,0.2-0.1c0.8,2.4,2.4,4.4,4.1,4.4
				c1.7,0,3.3-1.9,4.1-4.3c0,0.1,0.1,0.1,0.2,0.1c0.3,0.1,0.7-0.6,0.9-1.4c0.1-0.8,0-1.6-0.4-1.6c0,0,0,0-0.1,0l0,0
				c0.2-2.8-0.9-5.3-4-5.7c-0.2,0-0.4,0-0.7,0c-0.2,0-0.4,0-0.7,0c-3.1,0.3-4.2,2.9-4,5.7c0,0-0.1,0-0.1,0c-0.3,0.1-0.5,0.8-0.4,1.6
				C875.1,664.8,875.5,665.4,875.9,665.4z"/>
		</g>
		<g>
			<path fill-rule="evenodd" clip-rule="evenodd" fill="#26536E" d="M823.1,683.8c-0.6-4.6-1.1-9.4-1.6-11.4c0-0.1,0-0.1-0.1-0.2
				c0,0,0,0,0,0c0,0,0-0.1,0-0.1c0,0,0-0.1-0.1-0.1c-0.8-1.2-3.4-1.8-5.1-2.4l0-0.1l0,0l-2.2,8.8l0,0l-0.4-5.2h0l0.5-0.8l-1.1-1.7
				l-1,1.7l0.5,0.8c0,0,0,0,0,0l-0.4,4.6l-0.1,0.8l-2.2-8.9l0-0.1l-0.1,0.1c-1.4,0.5-3.4,0.9-4.4,1.7c0,0,0,0,0,0c0,0,0,0,0,0
				c-0.3,0.1-0.5,0.3-0.6,0.7c0,0,0,0,0,0c0,0.1-0.1,0.1-0.1,0.2c0,0,0,0,0,0c0,0,0,0,0,0c0,0,0,0,0,0.1c-0.5,2.2-1,6.9-1.6,11.3
				c-0.1,1.1,1,1.6,1.4,1.7c0.7,0.2,1.3,0.3,2,0.4c0,0,0,0,0,0c0.6,0.1,1.2,0.2,1.9,0.3c0,0,0.1,0,0.1,0v0c2.7,0.3,6.2,0.2,8.9,0
				l0,0c1.6-0.2,2.8-0.3,4.2-0.8C821.9,685.3,823.2,684.8,823.1,683.8z"/>
			<path fill-rule="evenodd" clip-rule="evenodd" fill="#26536E" d="M808.7,665.4c0.1,0,0.1-0.1,0.2-0.1c0.8,2.4,2.4,4.4,4.1,4.4
				c1.7,0,3.3-1.9,4.1-4.3c0,0.1,0.1,0.1,0.2,0.1c0.3,0.1,0.7-0.6,0.9-1.4c0.1-0.8,0-1.6-0.4-1.6c0,0,0,0-0.1,0l0,0
				c0.2-2.8-0.9-5.3-4-5.7c-0.2,0-0.4,0-0.7,0c-0.2,0-0.4,0-0.7,0c-3.1,0.3-4.2,2.9-4,5.7c0,0-0.1,0-0.1,0c-0.3,0.1-0.5,0.8-0.4,1.6
				C808,664.8,808.3,665.4,808.7,665.4z"/>
		</g>
		<g>
			<path fill-rule="evenodd" clip-rule="evenodd" fill="#26536E" d="M855.8,618c-0.6-4.6-1.1-9.4-1.6-11.4c0-0.1,0-0.1-0.1-0.2
				c0,0,0,0,0,0c0,0,0-0.1,0-0.1c0,0,0-0.1-0.1-0.1c-0.8-1.2-3.4-1.8-5.1-2.4l0-0.1l0,0l-2.2,8.8l0,0l-0.4-5.2h0l0.5-0.8l-1.1-1.7
				l-1,1.7l0.5,0.8c0,0,0,0,0,0l-0.4,4.6l-0.1,0.8l-2.2-8.9l0-0.1l-0.1,0.1c-1.4,0.5-3.4,0.9-4.4,1.7c0,0,0,0,0,0c0,0,0,0,0,0
				c-0.3,0.1-0.5,0.3-0.6,0.7c0,0,0,0,0,0c0,0.1-0.1,0.1-0.1,0.2c0,0,0,0,0,0c0,0,0,0,0,0c0,0,0,0,0,0.1c-0.5,2.2-1,6.9-1.6,11.3
				c-0.1,1.1,1,1.6,1.4,1.7c0.7,0.2,1.3,0.3,2,0.4c0,0,0,0,0,0c0.6,0.1,1.2,0.2,1.9,0.3c0,0,0.1,0,0.1,0v0c2.7,0.3,6.2,0.2,8.9,0
				l0,0c1.6-0.2,2.8-0.3,4.2-0.8C854.7,619.5,855.9,619,855.8,618z"/>
			<path fill-rule="evenodd" clip-rule="evenodd" fill="#26536E" d="M841.4,599.6c0.1,0,0.1-0.1,0.2-0.1c0.8,2.4,2.4,4.4,4.1,4.4
				c1.7,0,3.3-1.9,4.1-4.3c0,0,0.1,0.1,0.2,0.1c0.3,0.1,0.7-0.6,0.9-1.4c0.1-0.8,0-1.6-0.4-1.6c0,0,0,0-0.1,0l0,0
				c0.2-2.8-0.9-5.3-4-5.7c-0.2,0-0.4,0-0.7,0c-0.2,0-0.4,0-0.7,0c-3.1,0.3-4.2,2.9-4,5.7c0,0-0.1,0-0.1,0c-0.3,0.1-0.5,0.8-0.4,1.6
				C840.7,599,841.1,599.6,841.4,599.6z"/>
		</g>
		<path fill="#FFDE36" d="M175.7,735.4c-47.7,0-86.5-38.8-86.5-86.5c0-47.7,38.8-86.5,86.5-86.5s86.5,38.8,86.5,86.5
			C262.2,696.6,223.4,735.4,175.7,735.4z M175.7,568.4c-44.4,0-80.5,36.1-80.5,80.5c0,44.4,36.1,80.5,80.5,80.5s80.5-36.1,80.5-80.5
			C256.2,604.5,220.1,568.4,175.7,568.4z"/>
		<text transform="matrix(1 0 0 1 460.7891 379.4951)"><tspan x="0" y="0" fill="#FFFFFF" font-family="'Antonio-Regular'" font-size="48">ELIKIA</tspan><tspan x="-58.3" y="30.4" fill="#FFFFFF" font-family="'Antonio-Regular'" font-size="17">Interface de gestion du personnel </tspan><tspan x="-19.2" y="50.8" fill="#FFFFFF" font-family="'Antonio-Regular'" font-size="17">de l’armée congolaise</tspan></text>
		<g>
			<polygon fill-rule="evenodd" clip-rule="evenodd" fill="#FFFFFF" points="210.7,673.1 140,673.1 154.9,645.1 192.2,645.1 			"/>
			<path fill-rule="evenodd" clip-rule="evenodd" fill="#FFFFFF" d="M187.5,642.2h-24.3c0.6-4.5,1.1-8.9,1.6-11.2c0,0,0,0,0-0.1
				c0,0,0,0,0,0c0,0,0,0,0,0c0-0.1,0.1-0.2,0.1-0.3c0,0,0,0,0,0c0.2-0.4,0.4-0.7,0.7-0.8c0,0,0,0,0,0c0,0,0,0,0,0
				c1.3-1,3.7-1.5,5.5-2.1l0.1-0.1l0,0.1l2.7,11.1l0.1-1l0.5-5.7c0,0,0,0,0,0l-0.6-0.9l1.3-2.1l1.4,2.1l-0.7,0.9h0l0.5,6.5l0,0
				l2.7-11l0-0.1l0.1,0.1c2.2,0.7,5.4,1.5,6.4,3c0,0.1,0.1,0.1,0.1,0.2c0,0,0,0.1,0.1,0.1c0,0,0,0,0,0c0,0.1,0.1,0.2,0.1,0.2
				C186.3,633.2,186.9,637.6,187.5,642.2z"/>
			<path fill-rule="evenodd" clip-rule="evenodd" fill="#FFFFFF" d="M169.9,622.4c0.1,0,0.2-0.1,0.2-0.2c1,3,3,5.4,5.1,5.4
				c2.1,0,4.1-2.4,5.1-5.4c0.1,0.1,0.1,0.1,0.2,0.1c0.4,0.1,0.9-0.7,1.1-1.8c0.2-1,0-2-0.4-2c0,0-0.1,0-0.1,0l0,0
				c0.2-3.5-1.1-6.7-5.1-7.1c-0.3,0-0.5,0-0.8,0c-0.3,0-0.6,0-0.8,0c-3.9,0.4-5.3,3.6-5.1,7.1c0,0-0.1,0-0.1,0c-0.4,0.1-0.6,1-0.4,2
				C169,621.6,169.4,622.4,169.9,622.4z"/>
			<g>
				<path fill-rule="evenodd" clip-rule="evenodd" fill="#FFFFFF" d="M143,659.8c-0.8-6.4-1.6-13-2.2-15.8c0-0.1-0.1-0.2-0.1-0.3
					c0,0,0,0,0,0c0,0,0-0.1-0.1-0.1c0-0.1-0.1-0.1-0.1-0.2c-1.1-1.6-4.7-2.5-7.1-3.3l-0.1-0.1l0,0.1l-3,12.2l0,0l-0.6-7.2h0l0.8-1.1
					l-1.5-2.3l-1.4,2.3l0.7,1.1c0,0,0,0,0,0l-0.5,6.3l-0.1,1.1l-3-12.3l0-0.1l-0.1,0.1c-2,0.7-4.7,1.3-6.1,2.3c0,0,0,0,0,0
					c0,0,0,0,0,0c-0.4,0.1-0.6,0.4-0.8,0.9c0,0,0,0,0,0c0,0.1-0.1,0.2-0.1,0.3c0,0,0,0,0,0c0,0,0,0,0,0c0,0,0,0,0,0.1
					c-0.7,3-1.4,9.6-2.2,15.7c-0.2,1.6,1.4,2.2,2,2.4c0.9,0.2,1.8,0.4,2.7,0.6c0,0,0,0,0,0c0.8,0.2,1.7,0.3,2.7,0.4
					c0.1,0,0.1,0,0.2,0v0c3.8,0.4,8.6,0.3,12.3,0l0,0c2.2-0.3,3.9-0.5,5.8-1.1C141.5,661.9,143.2,661.2,143,659.8z"/>
				<path fill-rule="evenodd" clip-rule="evenodd" fill="#FFFFFF" d="M123.1,634.3c0.1,0,0.2-0.1,0.3-0.2c1.1,3.3,3.3,6,5.7,6
					c2.4,0,4.5-2.7,5.7-6c0.1,0.1,0.1,0.1,0.2,0.1c0.5,0.1,1-0.8,1.2-2c0.2-1.2,0-2.2-0.5-2.3c0,0-0.1,0-0.1,0l0,0
					c0.2-3.8-1.3-7.4-5.6-7.8c-0.3,0-0.6,0-0.9,0c-0.3,0-0.6,0-0.9,0c-4.4,0.4-5.8,4-5.6,7.8c-0.1,0-0.1,0-0.2,0
					c-0.5,0.1-0.7,1.1-0.5,2.3C122.1,633.5,122.6,634.4,123.1,634.3z"/>
			</g>
			<g>
				<path fill-rule="evenodd" clip-rule="evenodd" fill="#FFFFFF" d="M233.3,659.8c-0.8-6.4-1.6-13-2.2-15.8c0-0.1-0.1-0.2-0.1-0.3
					c0,0,0,0,0,0c0,0,0-0.1-0.1-0.1c0-0.1-0.1-0.1-0.1-0.2c-1.1-1.6-4.7-2.5-7.1-3.3l-0.1-0.1l0,0.1l-3,12.2l0,0l-0.6-7.2h0l0.8-1.1
					l-1.5-2.3l-1.4,2.3l0.7,1.1c0,0,0,0,0,0l-0.5,6.3l-0.1,1.1l-3-12.3l0-0.1l-0.1,0.1c-2,0.7-4.7,1.3-6.1,2.3c0,0,0,0,0,0
					c0,0,0,0,0,0c-0.4,0.1-0.6,0.4-0.8,0.9c0,0,0,0,0,0c0,0.1-0.1,0.2-0.1,0.3c0,0,0,0,0,0c0,0,0,0,0,0c0,0,0,0,0,0.1
					c-0.7,3-1.4,9.6-2.2,15.7c-0.2,1.6,1.4,2.2,2,2.4c0.9,0.2,1.8,0.4,2.7,0.6c0,0,0,0,0,0c0.8,0.2,1.7,0.3,2.7,0.4
					c0.1,0,0.1,0,0.2,0v0c3.8,0.4,8.6,0.3,12.3,0l0,0c2.2-0.3,3.9-0.5,5.8-1.1C231.7,661.9,233.5,661.2,233.3,659.8z"/>
				<path fill-rule="evenodd" clip-rule="evenodd" fill="#FFFFFF" d="M213.3,634.3c0.1,0,0.2-0.1,0.3-0.2c1.1,3.3,3.3,6,5.7,6
					c2.4,0,4.5-2.7,5.7-6c0.1,0.1,0.1,0.1,0.2,0.1c0.5,0.1,1-0.8,1.2-2c0.2-1.2,0-2.2-0.5-2.3c0,0-0.1,0-0.1,0l0,0
					c0.2-3.8-1.3-7.4-5.6-7.8c-0.3,0-0.6,0-0.9,0c-0.3,0-0.6,0-0.9,0c-4.4,0.4-5.8,4-5.6,7.8c-0.1,0-0.1,0-0.2,0
					c-0.5,0.1-0.7,1.1-0.5,2.3C212.3,633.5,212.9,634.4,213.3,634.3z"/>
			</g>
			<rect x="140" y="676" fill-rule="evenodd" clip-rule="evenodd" fill="#FFFFFF" width="70.7" height="4.3"/>
		</g>
		<g>
			<line fill="#2C3945" x1="512.7" y1="259.7" x2="512.7" y2="205.3"/>
			<rect x="509.7" y="205.3" fill="#00953A" width="6" height="54.3"/>
		</g>
		<g>
			<circle fill="#26536E" cx="512.3" cy="205.7" r="7.6"/>
			<path fill="#FFFFFF" d="M512.3,216.2c-5.8,0-10.6-4.7-10.6-10.6s4.7-10.6,10.6-10.6s10.6,4.7,10.6,10.6S518.1,216.2,512.3,216.2z
				 M512.3,201.1c-2.5,0-4.6,2-4.6,4.6s2,4.6,4.6,4.6c2.5,0,4.6-2,4.6-4.6S514.8,201.1,512.3,201.1z"/>
		</g>
		<g>
			<circle fill="#26536E" cx="513" cy="259.7" r="7.6"/>
			<path fill="#FFFFFF" d="M513,270.2c-5.8,0-10.6-4.7-10.6-10.6c0-5.8,4.7-10.6,10.6-10.6c5.8,0,10.6,4.7,10.6,10.6
				C523.6,265.5,518.8,270.2,513,270.2z M513,255.1c-2.5,0-4.6,2-4.6,4.6c0,2.5,2,4.6,4.6,4.6c2.5,0,4.6-2,4.6-4.6
				C517.6,257.1,515.5,255.1,513,255.1z"/>
		</g>
		<g>
			<line fill="#2C3945" x1="512.3" y1="565.7" x2="512.3" y2="511.3"/>
			<rect x="509.3" y="511.3" fill="#FF1F19" width="6" height="54.3"/>
		</g>
		<g>
			<circle fill="#26536E" cx="512" cy="511.7" r="7.6"/>
			<path fill="#FFFFFF" d="M512,522.2c-5.8,0-10.6-4.7-10.6-10.6c0-5.8,4.7-10.6,10.6-10.6c5.8,0,10.6,4.7,10.6,10.6
				C522.5,517.5,517.8,522.2,512,522.2z M512,507.1c-2.5,0-4.6,2-4.6,4.6c0,2.5,2,4.6,4.6,4.6c2.5,0,4.6-2,4.6-4.6
				C516.5,509.2,514.5,507.1,512,507.1z"/>
		</g>
		<g>
			<circle fill="#26536E" cx="512.3" cy="567.2" r="7.6"/>
			<path fill="#FFFFFF" d="M512.3,577.8c-5.8,0-10.6-4.7-10.6-10.6c0-5.8,4.7-10.6,10.6-10.6c5.8,0,10.6,4.7,10.6,10.6
				C522.9,573.1,518.1,577.8,512.3,577.8z M512.3,562.7c-2.5,0-4.6,2-4.6,4.6c0,2.5,2,4.6,4.6,4.6c2.5,0,4.6-2,4.6-4.6
				C516.9,564.7,514.8,562.7,512.3,562.7z"/>
		</g>
		<g>
			<line fill="#2C3945" x1="384.2" y1="390.5" x2="259.9" y2="390.5"/>
			<rect x="259.9" y="387.5" fill="#00953A" width="124.3" height="6"/>
		</g>
		<g>
			<circle fill="#26536E" cx="260.2" cy="390.2" r="7.6"/>
			<path fill="#FFFFFF" d="M260.2,400.8c-5.8,0-10.6-4.7-10.6-10.6c0-5.8,4.7-10.6,10.6-10.6c5.8,0,10.6,4.7,10.6,10.6
				C270.8,396,266,400.8,260.2,400.8z M260.2,385.6c-2.5,0-4.6,2-4.6,4.6c0,2.5,2,4.6,4.6,4.6c2.5,0,4.6-2,4.6-4.6
				C264.8,387.7,262.7,385.6,260.2,385.6z"/>
		</g>
		<g>
			<circle fill="#26536E" cx="384.2" cy="390.9" r="7.6"/>
			<path fill="#FFFFFF" d="M384.2,401.4c-5.8,0-10.6-4.7-10.6-10.6c0-5.8,4.7-10.6,10.6-10.6c5.8,0,10.6,4.7,10.6,10.6
				C394.8,396.7,390,401.4,384.2,401.4z M384.2,386.3c-2.5,0-4.6,2-4.6,4.6c0,2.5,2,4.6,4.6,4.6s4.6-2,4.6-4.6
				C388.8,388.4,386.7,386.3,384.2,386.3z"/>
		</g>
		<g>
			<line fill="#2C3945" x1="763.7" y1="390.2" x2="639.4" y2="390.2"/>
			<rect x="639.4" y="387.2" fill="#FF1F19" width="124.3" height="6"/>
		</g>
		<g>
			<circle fill="#26536E" cx="639.7" cy="389.9" r="7.6"/>
			<path fill="#FFFFFF" d="M639.7,400.4c-5.8,0-10.6-4.7-10.6-10.6c0-5.8,4.7-10.6,10.6-10.6c5.8,0,10.6,4.7,10.6,10.6
				C650.3,395.7,645.5,400.4,639.7,400.4z M639.7,385.3c-2.5,0-4.6,2-4.6,4.6c0,2.5,2,4.6,4.6,4.6c2.5,0,4.6-2,4.6-4.6
				C644.3,387.3,642.2,385.3,639.7,385.3z"/>
		</g>
		<g>
			<circle fill="#26536E" cx="763.7" cy="390.5" r="7.6"/>
			<path fill="#FFFFFF" d="M763.7,401.1c-5.8,0-10.6-4.7-10.6-10.6c0-5.8,4.7-10.6,10.6-10.6s10.6,4.7,10.6,10.6
				C774.3,396.4,769.5,401.1,763.7,401.1z M763.7,386c-2.5,0-4.6,2-4.6,4.6c0,2.5,2,4.6,4.6,4.6s4.6-2,4.6-4.6
				C768.3,388,766.2,386,763.7,386z"/>
		</g>
		<g>
			<line fill="#2C3945" x1="600.4" y1="474.6" x2="787.2" y2="591.4"/>
			<polygon fill="#FF1F19" points="785.1,593.5 598.3,476.7 602.5,472.5 789.4,589.3 			"/>
		</g>
		<g>
			<circle fill="#26536E" cx="786" cy="591.4" r="7.6"/>
			<path fill="#FFFFFF" d="M786,602c-5.8,0-10.6-4.7-10.6-10.6c0-5.8,4.7-10.6,10.6-10.6c5.8,0,10.6,4.7,10.6,10.6
				C796.5,597.2,791.8,602,786,602z M786,586.9c-2.5,0-4.6,2-4.6,4.6c0,2.5,2,4.6,4.6,4.6c2.5,0,4.6-2,4.6-4.6
				C790.5,588.9,788.5,586.9,786,586.9z"/>
		</g>
		<g>
			<circle fill="#26536E" cx="600.1" cy="474.6" r="7.6"/>
			<path fill="#FFFFFF" d="M600.1,485.2c-5.8,0-10.6-4.7-10.6-10.6c0-5.8,4.7-10.6,10.6-10.6c5.8,0,10.6,4.7,10.6,10.6
				C610.7,480.4,605.9,485.2,600.1,485.2z M600.1,470c-2.5,0-4.6,2-4.6,4.6c0,2.5,2,4.6,4.6,4.6c2.5,0,4.6-2,4.6-4.6
				C604.7,472.1,602.6,470,600.1,470z"/>
		</g>
		<g>
			<line fill="#2C3945" x1="233.5" y1="183.2" x2="420.3" y2="300"/>
			<polygon fill="#00953A" points="418.2,302.2 231.4,185.3 235.6,181.1 422.4,297.9 			"/>
		</g>
		<g>
			<circle fill="#26536E" cx="419.1" cy="300" r="7.6"/>
			<path fill="#FFFFFF" d="M419.1,310.6c-5.8,0-10.6-4.7-10.6-10.6c0-5.8,4.7-10.6,10.6-10.6c5.8,0,10.6,4.7,10.6,10.6
				C429.6,305.9,424.9,310.6,419.1,310.6z M419.1,295.5c-2.5,0-4.6,2-4.6,4.6s2,4.6,4.6,4.6c2.5,0,4.6-2,4.6-4.6
				S421.6,295.5,419.1,295.5z"/>
		</g>
		<circle fill="#26536E" cx="233.2" cy="183.2" r="7.6"/>
		<path fill="#FFFFFF" d="M233.2,193.8c-5.8,0-10.6-4.7-10.6-10.6c0-5.8,4.7-10.6,10.6-10.6c5.8,0,10.6,4.7,10.6,10.6
			C243.7,189,239,193.8,233.2,193.8z M233.2,178.7c-2.5,0-4.6,2-4.6,4.6c0,2.5,2,4.6,4.6,4.6c2.5,0,4.6-2,4.6-4.6
			C237.7,180.7,235.7,178.7,233.2,178.7z"/>
		<g>
			<line fill="#2C3945" x1="239.8" y1="594" x2="426.6" y2="477.2"/>
			<polygon fill="#FFDE36" points="241.9,596.2 237.7,591.9 424.5,475.1 428.8,479.3 			"/>
		</g>
		<g>
			<circle fill="#26536E" cx="425.4" cy="477.2" r="7.6"/>
			<path fill="#FFFFFF" d="M425.4,487.8c-5.8,0-10.6-4.7-10.6-10.6c0-5.8,4.7-10.6,10.6-10.6c5.8,0,10.6,4.7,10.6,10.6
				C435.9,483,431.2,487.8,425.4,487.8z M425.4,472.7c-2.5,0-4.6,2-4.6,4.6c0,2.5,2,4.6,4.6,4.6c2.5,0,4.6-2,4.6-4.6
				C429.9,474.7,427.9,472.7,425.4,472.7z"/>
		</g>
		<g>
			<circle fill="#26536E" cx="239.5" cy="594" r="7.6"/>
			<path fill="#FFFFFF" d="M239.5,604.6c-5.8,0-10.6-4.7-10.6-10.6c0-5.8,4.7-10.6,10.6-10.6c5.8,0,10.6,4.7,10.6,10.6
				C250.1,599.9,245.3,604.6,239.5,604.6z M239.5,589.5c-2.5,0-4.6,2-4.6,4.6c0,2.5,2,4.6,4.6,4.6c2.5,0,4.6-2,4.6-4.6
				C244.1,591.5,242,589.5,239.5,589.5z"/>
		</g>
		<g>
			<line fill="#2C3945" x1="607.7" y1="300" x2="794.5" y2="183.2"/>
			<polygon fill="#FFDE36" points="609.8,302.2 605.6,297.9 792.4,181.1 796.6,185.3 			"/>
		</g>
		<g>
			<path fill-rule="evenodd" clip-rule="evenodd" fill="#FFFFFF" d="M880.6,166.8v33c-2.9,1.3-5.9,2.4-9,3.4h-51.1
				c-3.4-1.1-6.7-2.3-9.9-3.8v-32.6H880.6z"/>
			<path fill-rule="evenodd" clip-rule="evenodd" fill="#FFFFFF" d="M872.8,144.3h-54.6c1.5-11.7,2.8-23.9,4.1-29.6c0,0,0-0.1,0-0.1
				c0,0,0-0.1,0-0.1c0.1-0.2,0.2-0.4,0.3-0.6c0.4-1,0.9-1.5,1.7-1.8c3.7-2.7,11.4-4,15.1-5.8v-1.9c-2.2-2.2-4.1-5.4-5.3-9
				c-0.2,0.2-0.3,0.3-0.5,0.3c-0.9,0.1-2-1.6-2.4-3.9c-0.4-2.3,0.1-4.3,1-4.5c0,0,0.1,0,0.1,0c0.1,0,0.1,0,0.2,0
				c-0.4-7.6,2.5-14.7,11.1-15.5c0.6-0.1,1.2-0.1,1.8-0.1c0.6,0,1.2,0,1.8,0.1c8.6,0.9,11.5,7.9,11.1,15.5c0.1,0,0.1,0,0.2,0
				c0.9,0.1,1.4,2.1,1,4.5c-0.4,2.3-1.4,4-2.4,3.9c-0.2,0-0.3-0.1-0.5-0.2c-1.3,3.6-3.2,6.9-5.4,9.1v1.7c4.2,1.8,15.2,3.6,17.3,8.1
				c0,0,0,0,0,0.1c0.1,0.2,0.1,0.3,0.2,0.5C869.8,120,871.3,132.1,872.8,144.3z"/>
			<polygon fill-rule="evenodd" clip-rule="evenodd" fill="#FFFFFF" points="913.9,146.2 902.9,164.6 788.1,164.6 777.2,146.2 			
				"/>
			<path fill-rule="evenodd" clip-rule="evenodd" fill="#FFFFFF" d="M825,103.9c-0.7-1.9-2.7-2.9-4.6-2.2l-13.3,4.7
				c-1.3,0.4-2.1,1.5-2.3,2.8l-5.4,1.9c-2.2,0.8-4.5,2.4-6.1,4.4c-1.5,1.9-2.4,4.2-2.3,6.5l0.7,13.7c-3.8,1-6.7,4.5-6.7,8.6
				c0,4.9,4,8.9,8.9,8.9c4.9,0,8.9-4,8.9-8.9c0-4.4-3.3-8.1-7.6-8.8l-0.7-13.7c-0.1-1.4,0.6-2.9,1.6-4.1c1.2-1.5,2.9-2.7,4.5-3.3
				l5.4-1.9c0.9,0.8,2.3,1.2,3.6,0.7l13.3-4.7C824.6,107.9,825.6,105.8,825,103.9z"/>
			<path fill-rule="evenodd" clip-rule="evenodd" fill="#26536E" d="M858.6,113.7l-4.7-6.3l0.2-0.3l-2.8-1.8l-6,5.1l4,4.6l4.2-6.8
				l-5.7,23.3l-1.2-14.4h0l1.5-2.1l-3-4.6l0,0l-6-5.1l-2.8,1.8l4.9,7.8l3.8-4.5l-2.7,4.5l1.3,2.1c0,0,0,0,0,0l-1.2,14.7l-6.1-24.6
				l-5.2,6.3l4.7,5.5l-1.8,2.6l11.1,21.2l11.1-21.2l-1.8-2.6L858.6,113.7z"/>
		</g>
		<path fill="#FFDE36" d="M846,34.1c-47.7,0-86.5,38.8-86.5,86.5c0,35,21,65.3,51,78.9c3.2,1.5,6.5,2.7,9.9,3.8
			c8.1,2.5,16.7,3.9,25.6,3.9c8.9,0,17.5-1.4,25.6-3.9c3.1-1,6.1-2.1,9-3.4c30.5-13.4,51.9-43.9,51.9-79.3
			C932.5,72.9,893.7,34.1,846,34.1z M880.6,193.2c-10.5,5-22.2,7.8-34.6,7.8c-12.7,0-24.8-3-35.5-8.3c-26.6-13.1-45-40.6-45-72.2
			c0-44.4,36.1-80.5,80.5-80.5c44.4,0,80.5,36.1,80.5,80.5C926.5,152.6,907.7,180.3,880.6,193.2z"/>
		<g>
			<circle fill="#26536E" cx="793.3" cy="183.2" r="7.6"/>
			<path fill="#FFFFFF" d="M793.3,193.8c-5.8,0-10.6-4.7-10.6-10.6c0-5.8,4.7-10.6,10.6-10.6s10.6,4.7,10.6,10.6
				C803.8,189,799.1,193.8,793.3,193.8z M793.3,178.7c-2.5,0-4.6,2-4.6,4.6c0,2.5,2,4.6,4.6,4.6s4.6-2,4.6-4.6
				C797.8,180.7,795.8,178.7,793.3,178.7z"/>
		</g>
		<g>
			<circle fill="#26536E" cx="607.4" cy="300" r="7.6"/>
			<path fill="#FFFFFF" d="M607.4,310.6c-5.8,0-10.6-4.7-10.6-10.6c0-5.8,4.7-10.6,10.6-10.6c5.8,0,10.6,4.7,10.6,10.6
				C617.9,305.9,613.2,310.6,607.4,310.6z M607.4,295.5c-2.5,0-4.6,2-4.6,4.6c0,2.5,2,4.6,4.6,4.6c2.5,0,4.6-2,4.6-4.6
				C611.9,297.5,609.9,295.5,607.4,295.5z"/>
		</g>
		<g>
			<polygon fill="#FFFFFF" points="544.3,620.1 544.3,603.6 528.5,603.6 528.5,603.6 477.7,603.6 477.7,697.4 544.3,697.4 
				544.3,620.1 			"/>
			<g>
				<path fill="#26536E" d="M553.6,701.8l-12.1-11.7l0.7-0.7l-7-6.8l-0.8,0.8c-0.4-0.1-0.7,0.4-1,1l-2.2,2.2c-0.6,0.3-1.2,0.6-1,1
					l-0.8,0.8l7,6.8l0.7-0.7l12.1,11.7c1.2,1.2,3.2,1.2,4.5,0C554.8,704.9,554.8,703,553.6,701.8z"/>
				<path fill="#FFFFFF" d="M551.3,708c-1.1,0-2.2-0.4-2.9-1.2l-11.4-11l-0.7,0.7l-8.5-8.2l1.2-1.2c0.2-0.7,0.9-1.1,1.4-1.4l2-2
					c0.3-0.6,0.7-1.2,1.4-1.4l1.3-1.2l8.5,8.2l-0.7,0.7l11.4,11c0.8,0.8,1.2,1.8,1.2,2.9s-0.4,2.1-1.2,2.9
					C553.5,707.6,552.5,708,551.3,708z M537,693.1l12.8,12.3c0.8,0.8,2.3,0.8,3.1,0c0.4-0.4,0.6-0.9,0.6-1.4s-0.2-1.1-0.6-1.4
					L540,690.1l0.7-0.7l-5.6-5.4l-0.5,0.5l-0.2-0.1c-0.1,0.1-0.1,0.2-0.2,0.3l-0.2,0.3l-2.5,2.3c-0.2,0.1-0.3,0.2-0.4,0.2l0.1,0.2
					l-0.5,0.5l5.6,5.4L537,693.1z"/>
			</g>
			<rect x="488.3" y="619.1" fill="#26536E" width="46.5" height="3"/>
			<path fill="#26536E" d="M504.6,657c-0.2,0.2-0.3,0.4-0.5,0.6c-8,8.7-7.8,22.5,0.5,31c8.5,8.7,22.3,8.7,30.8,0
				c8.5-8.7,8.5-22.9,0-31.6C526.9,648.3,513.1,648.3,504.6,657z M532.2,685.3c-6.9,7.1-18,7.3-24.7,0.4c-6.5-6.7-6.5-17.6-0.2-24.7
				c0.2-0.2,0.4-0.4,0.6-0.6c6.9-7.1,18-7.3,24.7-0.4c0.1,0.1,0.2,0.2,0.2,0.2C539.3,667.1,539,678.2,532.2,685.3z"/>
			<rect x="488.4" y="626.1" fill="#26536E" width="46.3" height="2.2"/>
			<rect x="488.4" y="630.5" fill="#26536E" width="46.3" height="2.2"/>
			<rect x="488.4" y="634.8" fill="#26536E" width="46.3" height="2.2"/>
			<rect x="488.4" y="639.1" fill="#26536E" width="46.3" height="2.2"/>
			<rect x="488.4" y="643.5" fill="#26536E" width="46.3" height="2.2"/>
			
				<rect x="515.1" y="669.4" transform="matrix(0.5676 -0.8233 0.8233 0.5676 -332.1168 717.4901)" fill="#26536E" width="3.8" height="11.1"/>
			
				<rect x="521.2" y="665.8" transform="matrix(0.8163 0.5776 -0.5776 0.8163 484.7043 -178.5658)" fill="#26536E" width="3.8" height="14"/>
		</g>
	</g>
</g>
</svg>
